# xmcd
# 
# Track frame offsets:
#     150
#     20440
#     42087
#     60310
#     82867
#     97890
#     115660
#     133900
#     154985
#     173940
#     191127
#     210310
#     233565
#     250430
#     265187
#     285280
#     303117
#     323685
# 
# Disc length: 4607
# 
# Revision: 107
# Processed by: cddbd v1.5.2PL0 Copyright (c) Steve Scherf et al.
# Submitted via: fre:ac v1.0.17
# 
DISCID=e211fd12
DTITLE=Bruce Springsteen - Greatest Hits
DYEAR=1995
DGENRE=Rock
TTITLE0=Born To Run
TTITLE1=Thunder Road
TTITLE2=Badlands
TTITLE3=The River
TTITLE4=Hungry Heart
TTITLE5=Atlantic City
TTITLE6=Dancing In The Dark
TTITLE7=Born In The U.S.A.
TTITLE8=My Hometown
TTITLE9=Glory Days
TTITLE10=Brilliant Disguise
TTITLE11=Human Touch
TTITLE12=Better Days
TTITLE13=Streets Of Philadelphia
TTITLE14=Secret Garden
TTITLE15=Murder Incorporated
TTITLE16=Blood Brothers
TTITLE17=This Hard Land
EXTD=Year: 1995\n\n\n\n\n\n                                                        www.brucespringsteen.net
EXTT0=
EXTT1=
EXTT2=
EXTT3=
EXTT4=
EXTT5=
EXTT6=
EXTT7=
EXTT8=
EXTT9=
EXTT10=
EXTT11=
EXTT12=
EXTT13=
EXTT14=
EXTT15=
EXTT16=
EXTT17=
PLAYORDER=
